Coordinates
version=1
nRows=13
nColumns=36
inDegrees=yes

Units are S.I. units (second, meters, Newtons, ...)
If the header above contains a line with 'inDegrees', this indicates whether rotational values are in degrees (yes) or radians (no).

endheader
time	pelvis_tilt	pelvis_list	pelvis_rotation	pelvis_tx	pelvis_ty	pelvis_tz	hip_flexion_r	hip_adduction_r	hip_rotation_r	knee_angle_r	knee_angle_r_beta	ankle_angle_r	subtalar_angle_r	mtp_angle_r	hip_flexion_l	hip_adduction_l	hip_rotation_l	knee_angle_l	knee_angle_l_beta	ankle_angle_l	subtalar_angle_l	mtp_angle_l	lumbar_extension	lumbar_bending	lumbar_rotation	arm_flex_r	arm_add_r	arm_rot_r	elbow_flex_r	pro_sup_r	arm_flex_l	arm_add_l	arm_rot_l	elbow_flex_l	pro_sup_l
      7.61666670	     -9.70731431	      9.06087341	     -0.89862264	      1.35843697	      0.89531636	     -0.03648956	     22.09793518	     -2.94002050	      1.23561920	     31.04027721	      0.54175504	     27.00750945	     -5.68032480	     -7.49999987	     59.51487442	      3.55305133	      0.55130393	     51.45951057	      0.89813789	     26.89782560	     -6.33378929	     -7.49999987	    -19.63951127	     -0.34824831	     -4.13664548	     34.75127720	     -3.56811505	     70.38835376	    120.03771400	    102.72303024	     39.90085137	     -7.23330681	     62.05106769	    128.95904094	    108.86759467
      7.63333330	     -9.74166966	      9.26867164	     -0.53126904	      1.36418632	      0.90094503	     -0.03407259	     21.02510772	     -3.42945338	      0.40299866	     28.98126423	      0.50581848	     25.54720269	     -5.53943428	     -7.49999987	     58.15597692	      3.77462192	      0.05393377	     51.87302748	      0.90535512	     26.52495443	     -7.37438485	     -7.49999987	    -18.82645580	     -0.93338008	     -4.28726672	     34.07087987	     -3.30326569	     69.86893425	    120.17445472	    102.81942678	     39.72224649	     -7.14360176	     62.56871547	    129.24602992	    108.80738061
      7.65000000	     -9.58171441	      9.43260777	     -0.37865851	      1.36507371	      0.90638852	     -0.03429111	     19.84219676	     -3.86814724	     -0.44458510	     27.00669654	      0.47135577	     24.13467129	     -5.09782199	     -7.49999987	     56.24535578	      3.97618010	     -0.51728817	     51.37816177	      0.89671809	     26.21920895	     -7.94751601	     -7.49999987	    -18.40812726	     -1.46529701	     -4.24274787	     33.65694648	     -3.33632065	     69.57105508	    120.64026859	    102.97285377	     39.73680791	     -7.02771232	     62.67487855	    129.30443857	    108.85516155
      7.66666670	     -9.26333955	      9.55019192	     -0.43794386	      1.37089567	      0.90957405	     -0.03135130	     18.37980055	     -4.10424711	     -0.99850269	     25.09288722	      0.43795350	     23.49874334	     -4.15565875	     -7.49999987	     54.14662062	      4.13724293	     -0.55617304	     50.94995680	      0.88924450	     26.35312565	     -8.16864252	     -7.49999987	    -17.89723031	     -2.09117774	     -3.96327177	     33.07582068	     -3.46865350	     69.56427988	    121.22193783	    102.99200653	     39.50845354	     -6.95967902	     62.70480611	    129.12889914	    108.70480592
      7.68333330	     -8.75512185	      9.84125719	     -0.37319409	      1.38073221	      0.91358747	     -0.03202780	     16.54934990	     -4.54387663	     -1.52873911	     23.29528540	      0.40657943	     22.81165617	     -3.68108571	     -7.49999987	     51.37371848	      4.59936140	     -0.63284535	     50.17687454	      0.87575167	     26.50992167	     -8.40160681	     -7.49999987	    -17.36343395	     -2.83544388	     -4.01560708	     32.07159326	     -3.37338400	     69.61449311	    121.88837828	    102.88232012	     38.93633975	     -6.74402162	     62.71371304	    129.44176505	    109.02165178
      7.70000000	     -8.36353369	     10.12036322	     -0.43117057	      1.38118041	      0.91624996	     -0.03138862	     14.93392047	     -4.99322303	     -2.33192260	     21.38786412	      0.37328865	     22.37647982	     -2.39808453	     -7.49999987	     48.99207594	      4.86465237	     -1.08247383	     49.09565449	      0.85688082	     26.74503745	     -8.28780486	     -7.49999987	    -16.82217061	     -3.57818147	     -3.81517233	     31.76434229	     -3.25424618	     69.59367545	    121.99634869	    103.17788905	     38.51240582	     -6.44323792	     62.76386919	    129.50088252	    108.89002166
      7.71666670	     -8.32866372	     10.19553393	     -0.36587535	      1.38134734	      0.91443501	     -0.03196721	     14.03199385	     -5.14504103	     -3.06028992	     19.98026473	      0.34872140	     22.26694839	     -1.43992122	     -7.49999987	     47.47602738	      5.10472538	     -1.08239497	     48.30694469	      0.84311524	     27.45028978	     -8.18688162	     -7.49999987	    -15.91125236	     -3.97798974	     -3.45928993	     32.04552267	     -3.39297255	     69.45740439	    122.64055108	    103.60752682	     38.68224706	     -5.79926633	     62.83317400	    129.95789957	    108.53622757
      7.73333330	     -8.29896558	     10.37416801	     -0.31899938	      1.38623490	      0.91502347	     -0.02934064	     13.01257253	     -5.25457842	     -3.40654596	     18.46044663	      0.32219558	     22.13434463	     -1.09701213	     -7.49999987	     45.95380111	      5.37296654	     -1.06779319	     47.59718040	      0.83072751	     27.89088244	     -8.24532115	     -7.49999987	    -14.98323087	     -4.45706999	     -3.04087550	     31.85094872	     -3.46909932	     69.41437849	    123.13764110	    102.12723582	     38.57702576	     -5.56244799	     62.63535345	    130.26242729	    106.52855434
      7.75000000	     -7.63792306	     10.50351335	     -0.41316894	      1.38649097	      0.91650986	     -0.02948762	     11.12261478	     -5.39345732	     -4.25335311	     16.43691874	      0.28687835	     22.24644503	      0.19522945	     -7.49999987	     43.67186635	      5.64222108	     -1.16055518	     46.43646691	      0.81046924	     28.07868526	     -7.91757430	     -7.49999987	    -14.97613403	     -5.02776418	     -2.56126881	     32.08579015	     -3.82068443	     69.63374374	    123.51058826	    102.42572718	     38.85251292	     -5.25941385	     62.71306538	    130.03299802	    107.03498468
      7.76666670	     -7.29115564	     10.50949640	     -0.49340805	      1.38622120	      0.91705036	     -0.02915348	      9.83910156	     -5.39718671	     -4.98350970	     14.75765077	      0.25756960	     22.15475348	      1.13298336	     -7.49999987	     41.95302653	      5.73338605	     -1.26810306	     45.68624859	      0.79737546	     28.24145130	     -7.59609285	     -7.49999987	    -14.70444395	     -5.42289010	     -1.98294864	     32.79088382	     -3.97665189	     69.87283850	    124.28249521	    102.65037353	     39.29978274	     -4.86936697	     62.86633931	    129.90929354	    107.38995493
      7.78333330	     -7.19052151	     10.32040487	     -0.68518052	      1.38648928	      0.91769236	     -0.02932404	      9.09750041	     -5.15998928	     -5.53072693	     13.42436020	      0.23429929	     22.05721458	      1.79959222	     -7.49999987	     40.75586363	      5.58156354	     -1.19593925	     45.19081420	      0.78872850	     28.43024522	     -7.13665314	     -7.49999987	    -14.20812338	     -5.59792361	     -1.43331044	     33.32476292	     -3.98582343	     70.23405542	    124.91063959	    102.77472789	     39.28700603	     -4.73443707	     63.17956371	    129.79123953	    107.57224039
      7.80000000	     -6.74987509	     10.10298232	     -0.90173838	      1.38625643	      0.91817589	     -0.02897447	      8.12402182	     -4.91865077	     -6.09141002	     12.30380067	      0.21474183	     22.22044822	      2.57187605	     -7.49999987	     39.24954282	      5.40877816	     -0.95597334	     44.61219121	      0.77862962	     29.19117708	     -6.23141907	     -7.49999987	    -14.08500591	     -5.75130333	     -1.02876609	     33.66916447	     -3.75631461	     70.08440262	    125.41281229	    102.91784806	     39.62988536	     -4.45042952	     63.16795529	    129.69998553	    107.76434476
      7.81666670	     -6.12148576	      9.99265577	     -1.27941066	      1.39101972	      0.91735443	     -0.02687456	      6.79677630	     -4.71540701	     -6.45409114	     11.00487878	      0.19207137	     22.39032312	      3.25909177	     -7.49999987	     37.61251480	      5.21365580	     -0.86622381	     44.12022945	      0.77004327	     30.08782931	     -5.35846169	     -7.49999987	    -13.95306856	     -6.06700849	     -0.40099045	     33.68608346	     -3.50276618	     69.78080431	    125.66575828	    101.97893276	     39.79967903	     -4.29375361	     62.73851046	    129.51388367	    106.90040798
